<?xml version="1.0" encoding="utf-8"?>
<!-- Generator: Adobe Illustrator 22.0.1, SVG Export Plug-In . SVG Version: 6.00 Build 0)  -->
<svg version="1.1" id="Layer_1" xmlns="http://www.w3.org/2000/svg" xmlns:xlink="http://www.w3.org/1999/xlink" x="0px" y="0px"
	 viewBox="0 0 512 512" style="enable-background:new 0 0 512 512;" xml:space="preserve">
<style type="text/css">
	.st0{fill:#FF6600;}
</style>
<path class="st0" d="M247.8,193c-21,0-38,17-38,38s17,38,38,38s38-17,38-38S268.8,193,247.8,193L247.8,193z M94,193
	c-21,0-38,17-38,38s17,38,38,38s38-17,38-38S115,193,94,193z M402,193c-21,0-38,17-38,38s17,38,38,38s38-17,38-38S423,193,402,193z"
	/>
</svg>
